<svg xmlns="http://www.w3.org/2000/svg" viewBox="1049.3 0.4 159 152.9" width="128" height="128">
<path fill="black" d="m1154.1 110.2-.2-10.5V99c0-4.5.7-9 2.3-13.2a27 27 0 0 1 6.4-9.2c2.7-2.5 5.5-4.7 8.5-6.8 3-2 5.8-4.2 8.6-6.5A27.5 27.5 0 0 0 1188 50a34.4 34.4 0 0 0 0-15.5 22.5 22.5 0 0 0-17.5-17.4c-3.3-.8-6.7-1.3-10.1-1.2-7 0-12.7 1.4-17 4.2a25 25 0 0 0-9.7 12 49.6 49.6 0 0 0-4 17v1.3l-15.2-6.6c.3-4.2-3.4-7.7-1.8-11.6a45.7 45.7 0 0 1 12-17.5 52.6 52.6 0 0 1 68.4-3.4 39.1 39.1 0 0 1 15.2 32.4c0 2.5-.2 5-.6 7.5a34 34 0 0 1-3.5 10.9c-2.6 4.5-6 8.5-10.2 11.7-4 3-8 5.6-12.3 8a66 66 0 0 0-10.5 7.6 14 14 0 0 0-4.5 10.3l-.4 10.5h-6Zm-4.9 38.6c2.9 3 6.9 4.6 11 4.5a15.4 15.4 0 0 0 15.6-15.8 15 15 0 0 0-4.8-11 15 15 0 0 0-11-4.4 15 15 0 0 0-10.9 4.6l-.1.1c-3 3-4.5 7-4.4 11.1 0 4.1 1.6 8 4.5 10.9h.1Z"/><path d="m1049.3 97 15.7-3.2c0 2.7.4 5.4 1 8a28.1 28.1 0 0 0 6.5 11.9c3 2.9 6.7 5 10.7 5.9a28.3 28.3 0 0 0 9 1c2 0 3.9-.1 5.8-.4 2.7-.4 5-1 7.1-2a17.7 17.7 0 0 0 8.1-7.1c1.4-2.2 2.3-4.7 2.6-7.3.2-1.1.3-2.3.3-3.4 0-5.5-1.6-9.5-4.8-12.2a27.2 27.2 0 0 0-12.9-5.8l-13.8-3-3-.8-5.8-1.7c-3.3-1-6.6-2.5-9.7-4.5a24.3 24.3 0 0 1-7.8-8.2c-1.8-3-2.8-6.6-3-11l-.1-2c0-2.4.2-4.8.7-7.2.8-3.5 2.2-6.5 4.3-9l.2-.3a29.7 29.7 0 0 1 13.6-9.3 55 55 0 0 1 36.6.6 32.6 32.6 0 0 1 12.6 9.8 34.3 34.3 0 0 1 6.5 15.3l-15.5 3.2a33 33 0 0 0-2.9-10.9l-.4-.5c-1.8-3-4.4-5.5-7.6-7.1a25.7 25.7 0 0 0-12.3-2.4 35.5 35.5 0 0 0-11 1.7 20.3 20.3 0 0 0-8.4 5.5 13 13 0 0 0-2.8 5.9c-.3 1.2-.4 2.5-.4 3.8 0 1.6.2 3.2.7 4.7.7 2 2 4 3.6 5.4 1 .9 2.1 1.6 3.3 2.2 2.9 1.5 6.6 2.9 11.3 4l13.9 3.1c4.9 1 9.6 2.8 14 5 4.3 2.2 8 5.5 10.7 9.5a22 22 0 0 1 3 6.8c.7 2.7 1 5.7 1 9.1 0 2.8-.2 5.6-.8 8.3-.7 3-2 6-3.6 8.7a27.8 27.8 0 0 1-12.9 10.7 49.4 49.4 0 0 1-20 3.7c-8.1 0-15.2-1.3-21.3-4a35.6 35.6 0 0 1-14.6-11.9 40.6 40.6 0 0 1-7.4-18.6Z"/>
<style>@media(prefers-color-scheme:dark){path{fill:#fff;}}</style>
</svg>